<svg xmlns="http://www.w3.org/2000/svg" width="1190" height="1064" viewBox="0 0 1190 1064"><g><g opacity=".5"><path fill="#80b7b3" d="M188.636 1003.692l-2.828-2.828 490.118-490.119c-4.498-5.88-4.057-14.327 1.321-19.705 5.378-5.379 13.825-5.819 19.705-1.32L1186.364.307l2.828 2.828-489.411 489.411c4.498 5.88 4.057 14.328-1.32 19.706-5.38 5.378-13.826 5.819-19.706 1.32zm-185 60l-2.828-2.828L778.84 282.83c-5.449-5.884-5.313-15.072.406-20.791 5.72-5.72 14.908-5.855 20.791-.407l201.326-201.325 2.828 2.828L802.598 264.73c3.602 5.788 2.89 13.496-2.138 18.523-5.027 5.027-12.735 5.74-18.523 2.138z"/></g></g></svg>